<svg viewBox="0 0 33 33" fill="none" xmlns="http://www.w3.org/2000/svg">
<g clip-path="url(#clip0_21_816)" filter="url(#filter0_d_21_816)">
<path d="M8.56485 0C6.03612 0 4 2.03612 4 4.56485V20.4352C4 22.9639 6.03612 25 8.56485 25H17.1664V15.2266H14.5821V11.7078H17.1664V8.70158C17.1664 6.3397 18.6934 4.1711 22.211 4.1711C23.6352 4.1711 24.6883 4.30783 24.6883 4.30783L24.6055 7.59378C24.6055 7.59378 23.5314 7.58363 22.3594 7.58363C21.0909 7.58363 20.8875 8.16807 20.8875 9.13832V11.7079H24.7063L24.5399 15.2266H20.8875V25.0001H24.4352C26.9639 25.0001 29 22.9639 29 20.4352V4.56488C29 2.03615 26.9639 2.5e-05 24.4352 2.5e-05H8.56483L8.56485 0Z" fill="black"/>
</g>
<defs>
<filter id="filter0_d_21_816" x="0" y="0" width="33" height="33" filterUnits="userSpaceOnUse" color-interpolation-filters="sRGB">
<feFlood flood-opacity="0" result="BackgroundImageFix"/>
<feColorMatrix in="SourceAlpha" type="matrix" values="0 0 0 0 0 0 0 0 0 0 0 0 0 0 0 0 0 0 127 0" result="hardAlpha"/>
<feOffset dy="4"/>
<feGaussianBlur stdDeviation="2"/>
<feComposite in2="hardAlpha" operator="out"/>
<feColorMatrix type="matrix" values="0 0 0 0 0 0 0 0 0 0 0 0 0 0 0 0 0 0 0.25 0"/>
<feBlend mode="normal" in2="BackgroundImageFix" result="effect1_dropShadow_21_816"/>
<feBlend mode="normal" in="SourceGraphic" in2="effect1_dropShadow_21_816" result="shape"/>
</filter>
<clipPath id="clip0_21_816">
<rect width="25" height="25" fill="white" transform="translate(4)"/>
</clipPath>
</defs>
</svg>
